<svg id="Слой_3" data-name="Слой 3" xmlns="http://www.w3.org/2000/svg" viewBox="0 0 232 232"><defs><style>.cls-1{fill:#fff;}</style></defs><title>about</title><path class="cls-1" d="M128,12A116,116,0,1,0,244,128,116,116,0,0,0,128,12Zm25,177s-3,5-14,8-22.5,3.5-31.5-3.5-3-26-3-26l9-31a24.42,24.42,0,0,0,1-7v-7a4.94,4.94,0,0,0-1-3c-1-1-4-2-7-2a53.84,53.84,0,0,0-8,1l-2,1a2.19,2.19,0,0,1-3-1c-1-2,1.5-5.5,1.5-5.5a83.77,83.77,0,0,1,17-6c9-2,15-2,22,1s9,8,9,8,3,9-1,23-8,27-8,27-2,10-1,16,14,5,14,5,4-1,6-3S153,189,153,189ZM138,90c-9.94,0-18-7.61-18-17s8.06-17,18-17,18,7.61,18,17S147.94,90,138,90Z" transform="translate(-12 -12)"/></svg>