<?xml version="1.0" encoding="utf-8"?>
<!-- Generator: Adobe Illustrator 24.0.1, SVG Export Plug-In . SVG Version: 6.00 Build 0)  -->
<svg version="1.1" xmlns="http://www.w3.org/2000/svg" xmlns:xlink="http://www.w3.org/1999/xlink" x="0px" y="0px"
	 viewBox="0 0 252.5 252.9" style="enable-background:new 0 0 252.5 252.9;" xml:space="preserve">
<style type="text/css">
	.st0{display:none;}
	.st1{display:inline;fill:none;stroke:#FFFFFF;stroke-width:7;stroke-miterlimit:10;}
	.st2{display:inline;fill:#FFFFFF;}
	.st3{display:inline;fill:none;stroke:#FFFFFF;stroke-width:8;stroke-miterlimit:10;}
	.st4{fill:none;stroke:#FFFFFF;stroke-width:7;stroke-miterlimit:10;}
	.st5{fill:#FFFFFF;}
</style>
<g id="Слой_5" class="st0">
	<title>block-flute</title>
	
		<rect x="37.3" y="117.4" transform="matrix(0.7071 -0.7071 0.7071 0.7071 -59.6708 123.2436)" class="st1" width="163.3" height="32.5"/>
	<path class="st1" d="M245.3,33.3l-47.2,51.3c-3.7,3.5-9.5,3.4-13.1-0.3l-16.6-16.6c-3.7-3.5-3.8-9.4-0.3-13.1l51-47.4
		c3.5-3.5,7.6-5.2,11.2-1.5L247,22.2C250.7,25.9,248.8,29.7,245.3,33.3z"/>
	<rect x="187.7" y="50.9" transform="matrix(0.7071 -0.7071 0.7071 0.7071 17.0805 155.0347)" class="st2" width="16" height="12"/>
	<polygon class="st3" points="31.9,247.1 5.8,221 49.7,179.9 72.7,202.9 	"/>
	<circle class="st2" cx="166.7" cy="85.9" r="4.5"/>
	<circle class="st2" cx="148.7" cy="103.9" r="4.5"/>
	<circle class="st2" cx="129.7" cy="122.9" r="4.5"/>
	<circle class="st2" cx="111.7" cy="140.9" r="4.5"/>
	<circle class="st2" cx="92.7" cy="158.9" r="4.5"/>
	<circle class="st2" cx="69.7" cy="175.9" r="4.5"/>
	<circle class="st2" cx="77.7" cy="183.9" r="3.5"/>
	<circle class="st2" cx="42.7" cy="201.9" r="4.5"/>
	<circle class="st2" cx="50.7" cy="209.9" r="3.5"/>
</g>
<g id="Слой_2">
	<path class="st4" d="M17.1,239.3l-3.7-3.7c-5.3-5.3-5.3-13.9,0-19.3L214.9,14.8c5.3-5.3,13.9-5.3,19.3,0l3.7,3.7
		c5.3,5.3,5.3,13.9,0,19.3L36.4,239.3C31.1,244.7,22.4,244.7,17.1,239.3z"/>
	<path class="st4" d="M125.6,127.1"/>
	<path class="st5" d="M62.7,167.3L58,172c2.5,11.3,11.1,20.4,22.3,23.4l4.5-4.5C72.7,189.5,63.3,179.5,62.7,167.3z"/>
	<path class="st5" d="M178.4,51.6l-4.8,4.8c2.5,11.3,11.1,20.4,22.3,23.4l4.5-4.5C188.4,73.8,179,63.9,178.4,51.6z"/>
	<path class="st5" d="M32.9,197.1l-4.8,4.8c2.5,11.3,11.1,20.4,22.3,23.4l4.5-4.5C42.9,219.3,33.5,209.4,32.9,197.1z"/>
	<path class="st5" d="M208.6,51.1l-10.8,10.8c-0.1,0.1-0.3,0.1-0.5,0l-6.6-6.6c-0.1-0.1-0.1-0.3,0-0.5l10.8-10.8c1-1,2.5-1,3.4,0
		l3.6,3.6C209.6,48.7,209.6,50.2,208.6,51.1z"/>
	<circle class="st5" cx="171.1" cy="81.6" r="6"/>
	<circle class="st5" cx="155.5" cy="97.2" r="6"/>
	<circle class="st5" cx="138.2" cy="114.5" r="6"/>
	<circle class="st5" cx="121.3" cy="131.4" r="6"/>
	<circle class="st5" cx="102.8" cy="149.9" r="6"/>
	<circle class="st5" cx="76.1" cy="172.1" r="5"/>
	<circle class="st5" cx="81.8" cy="180.3" r="3"/>
	<circle class="st5" cx="51.3" cy="196.5" r="5"/>
	<circle class="st5" cx="56.9" cy="204.7" r="3"/>
</g>
</svg>
