<svg id="Слой_3" data-name="Слой 3" xmlns="http://www.w3.org/2000/svg" viewBox="0 0 236.27 221.28"><defs><style>.cls-1{fill:none;stroke:#fff;stroke-miterlimit:10;stroke-width:7px;}.cls-2{fill:#fff;}</style></defs><title>chord</title><rect class="cls-1" x="184.27" y="3.5" width="48.5" height="214" rx="3.62"/><path class="cls-1" d="M53.56,164.5a4.06,4.06,0,0,1-4.06-4.06V33.56a4.06,4.06,0,0,1,4.06-4.06H17.12a3.62,3.62,0,0,0-3.62,3.62V239.88a3.62,3.62,0,0,0,3.62,3.62H58.38A3.62,3.62,0,0,0,62,239.88V164.5Z" transform="translate(-10 -26)"/><rect class="cls-1" x="39.5" y="3.5" width="38" height="135" rx="4.06"/><path class="cls-1" d="M178.93,29.78h-34a4,4,0,0,1,2.61,3.78V160.44a4.06,4.06,0,0,1-4.06,4.06h-9.39v75.66a3.62,3.62,0,0,0,3.62,3.62h41.26a3.62,3.62,0,0,0,3.62-3.62V33.4A3.62,3.62,0,0,0,178.93,29.78Z" transform="translate(-10 -26)"/><path class="cls-1" d="M113.56,164.5a4.06,4.06,0,0,1-4.06-4.06V33.56a4,4,0,0,1,2.61-3.78H84.89a4,4,0,0,1,2.61,3.78V160.44a4.06,4.06,0,0,1-4.06,4.06H74.05v75.66a3.62,3.62,0,0,0,3.62,3.62h41.26a3.62,3.62,0,0,0,3.62-3.62V164.5Z" transform="translate(-10 -26)"/><rect class="cls-1" x="99.5" y="3.5" width="38" height="135" rx="4.06"/><rect class="cls-2" x="10" width="217.5" height="7"/><path class="cls-2" d="M49.1,186,23.41,212.64a2.57,2.57,0,0,0,0,3.54h0a2.37,2.37,0,0,0,3.42,0l25.68-26.62a2.56,2.56,0,0,0,0-3.53h0A2.35,2.35,0,0,0,49.1,186Z" transform="translate(-10 -26)"/><path class="cls-2" d="M49.22,205,23.53,231.6a2.57,2.57,0,0,0,0,3.54h0a2.36,2.36,0,0,0,3.42,0l25.68-26.61a2.57,2.57,0,0,0,0-3.54h0A2.36,2.36,0,0,0,49.22,205Z" transform="translate(-10 -26)"/><path class="cls-2" d="M50.58,164.56l-27,28a2.57,2.57,0,0,0,0,3.54h0a2.36,2.36,0,0,0,3.42,0l27.05-28a2.56,2.56,0,0,0,0-3.53h0A2.36,2.36,0,0,0,50.58,164.56Z" transform="translate(-10 -26)"/><path class="cls-2" d="M45.29,150.07,23.53,172.61a2.57,2.57,0,0,0,0,3.54h0a2.37,2.37,0,0,0,3.42,0L48.7,153.6a2.54,2.54,0,0,0,0-3.53h0A2.35,2.35,0,0,0,45.29,150.07Z" transform="translate(-10 -26)"/><path class="cls-2" d="M46.26,128.06,23.53,151.6a2.57,2.57,0,0,0,0,3.54h0a2.37,2.37,0,0,0,3.42,0l22.72-23.55a2.56,2.56,0,0,0,0-3.53h0A2.35,2.35,0,0,0,46.26,128.06Z" transform="translate(-10 -26)"/><path class="cls-2" d="M45.87,109.64,23.53,132.79a2.57,2.57,0,0,0,0,3.54h0a2.37,2.37,0,0,0,3.42,0l22.33-23.15a2.55,2.55,0,0,0,0-3.54h0A2.36,2.36,0,0,0,45.87,109.64Z" transform="translate(-10 -26)"/><path class="cls-2" d="M46,89.81,23.53,113.14a2.56,2.56,0,0,0,0,3.53h0a2.36,2.36,0,0,0,3.42,0L49.46,93.35a2.57,2.57,0,0,0,0-3.54h0A2.37,2.37,0,0,0,46,89.81Z" transform="translate(-10 -26)"/><path class="cls-2" d="M46.33,68.1,23.53,91.73a2.56,2.56,0,0,0,0,3.53h0a2.36,2.36,0,0,0,3.42,0l22.8-23.62a2.57,2.57,0,0,0,0-3.54h0A2.37,2.37,0,0,0,46.33,68.1Z" transform="translate(-10 -26)"/><path class="cls-2" d="M45.39,48.11,23.53,70.75a2.57,2.57,0,0,0,0,3.54h0a2.36,2.36,0,0,0,3.42,0L48.8,51.65a2.57,2.57,0,0,0,0-3.54h0A2.35,2.35,0,0,0,45.39,48.11Z" transform="translate(-10 -26)"/><path class="cls-2" d="M34.28,38.61,23.53,49.74a2.57,2.57,0,0,0,0,3.54h0a2.36,2.36,0,0,0,3.42,0L37.7,42.14a2.56,2.56,0,0,0,0-3.53h0A2.36,2.36,0,0,0,34.28,38.61Z" transform="translate(-10 -26)"/><path class="cls-2" d="M49.45,221.42l-9.37,9.71a2.55,2.55,0,0,0,0,3.54h0a2.35,2.35,0,0,0,3.41,0L52.87,225a2.56,2.56,0,0,0,0-3.53h0A2.36,2.36,0,0,0,49.45,221.42Z" transform="translate(-10 -26)"/><rect class="cls-2" x="113.81" y="137.73" width="30.17" height="5" rx="2.5" transform="translate(-71.4 106.21) rotate(-45)"/><rect class="cls-2" x="126.28" y="148.91" width="14.19" height="5" rx="2.5" transform="translate(-78 112.66) rotate(-45)"/><rect class="cls-2" x="113.78" y="119.84" width="30.17" height="5" rx="2.5" transform="translate(-58.77 100.95) rotate(-45)"/><rect class="cls-2" x="113.78" y="100.84" width="30.17" height="5" rx="2.5" transform="translate(-45.33 95.39) rotate(-45)"/><rect class="cls-2" x="113.78" y="82.64" width="30.17" height="5" rx="2.5" transform="translate(-32.46 90.05) rotate(-45)"/><rect class="cls-2" x="113.99" y="65.85" width="30.17" height="5" rx="2.5" transform="translate(-20.53 85.29) rotate(-45)"/><rect class="cls-2" x="113.99" y="46.85" width="30.17" height="5" rx="2.5" transform="translate(-7.09 79.72) rotate(-45)"/><rect class="cls-2" x="114.95" y="39.71" width="10.16" height="5" rx="2.5" transform="translate(-4.69 71.24) rotate(-45)"/><path class="cls-2" d="M229.12,184.68l-26,26.5a2.53,2.53,0,0,0,0,3.52h0a2.42,2.42,0,0,0,3.46,0l26-26.5a2.51,2.51,0,0,0,0-3.52h0A2.4,2.4,0,0,0,229.12,184.68Z" transform="translate(-10 -26)"/><path class="cls-2" d="M229.24,203.56l-26,26.51a2.51,2.51,0,0,0,0,3.52h0a2.42,2.42,0,0,0,3.46,0l26-26.5a2.52,2.52,0,0,0,0-3.53h0A2.42,2.42,0,0,0,229.24,203.56Z" transform="translate(-10 -26)"/><path class="cls-2" d="M229.14,164.81,203.23,191.2a2.52,2.52,0,0,0,0,3.53h0a2.42,2.42,0,0,0,3.46,0l25.91-26.4a2.53,2.53,0,0,0,0-3.52h0A2.42,2.42,0,0,0,229.14,164.81Z" transform="translate(-10 -26)"/><path class="cls-2" d="M229.16,144.9l-25.93,26.41a2.52,2.52,0,0,0,0,3.53h0a2.42,2.42,0,0,0,3.46,0l25.93-26.42a2.53,2.53,0,0,0,0-3.52h0A2.41,2.41,0,0,0,229.16,144.9Z" transform="translate(-10 -26)"/><path class="cls-2" d="M229.65,123.48l-26.42,26.91a2.51,2.51,0,0,0,0,3.52h0a2.42,2.42,0,0,0,3.46,0L233.1,127a2.51,2.51,0,0,0,0-3.52h0A2.39,2.39,0,0,0,229.65,123.48Z" transform="translate(-10 -26)"/><path class="cls-2" d="M229.74,104.64l-26.51,27a2.52,2.52,0,0,0,0,3.53h0a2.42,2.42,0,0,0,3.46,0l26.51-27a2.52,2.52,0,0,0,0-3.53h0A2.42,2.42,0,0,0,229.74,104.64Z" transform="translate(-10 -26)"/><path class="cls-2" d="M229.43,85.39l-26.2,26.69a2.52,2.52,0,0,0,0,3.53h0a2.42,2.42,0,0,0,3.46,0l26.2-26.7a2.53,2.53,0,0,0,0-3.52h0A2.42,2.42,0,0,0,229.43,85.39Z" transform="translate(-10 -26)"/><path class="cls-2" d="M230.21,63.27l-27,27.49a2.51,2.51,0,0,0,0,3.52h0a2.42,2.42,0,0,0,3.46,0l27-27.49a2.51,2.51,0,0,0,0-3.52h0A2.42,2.42,0,0,0,230.21,63.27Z" transform="translate(-10 -26)"/><path class="cls-2" d="M229.25,43.36l-26,26.51a2.51,2.51,0,0,0,0,3.52h0a2.4,2.4,0,0,0,3.46,0l26-26.51a2.51,2.51,0,0,0,0-3.52h0A2.42,2.42,0,0,0,229.25,43.36Z" transform="translate(-10 -26)"/><path class="cls-2" d="M214.12,37.85,203.23,49a2.51,2.51,0,0,0,0,3.52h0a2.42,2.42,0,0,0,3.46,0l10.88-11.09a2.52,2.52,0,0,0,0-3.53h0A2.41,2.41,0,0,0,214.12,37.85Z" transform="translate(-10 -26)"/><path class="cls-2" d="M229.48,219.92l-10.75,11a2.53,2.53,0,0,0,0,3.52h0a2.4,2.4,0,0,0,3.46,0l10.75-10.95a2.51,2.51,0,0,0,0-3.52h0A2.42,2.42,0,0,0,229.48,219.92Z" transform="translate(-10 -26)"/></svg>