<svg id="Слой_6" data-name="Слой 6" xmlns="http://www.w3.org/2000/svg" viewBox="0 0 256 91"><defs><style>.cls-1{fill:#fff;}.cls-2{fill:none;}</style></defs><title>harmonica</title><path class="cls-1" d="M198.13,111.86H57a3.44,3.44,0,0,0-3.43,3.43h0v24.93A3.44,3.44,0,0,0,57,143.66H198.13a3.44,3.44,0,0,0,3.43-3.44h0V115.29a3.44,3.44,0,0,0-3.43-3.43ZM184.79,137.3a1.72,1.72,0,0,1-1.73,1.73H71.48a1.72,1.72,0,0,1-1.73-1.73V118.22a1.72,1.72,0,0,1,1.73-1.73H183.06a1.72,1.72,0,0,1,1.73,1.73Z" transform="translate(0 -80)"/><rect class="cls-1" x="68.01" y="24.92" width="119.67" height="4.63"/><rect class="cls-1" x="61.02" y="107.8" width="10.04" height="4.51" transform="translate(-58.48 -1.06) rotate(-45)"/><rect class="cls-1" x="187.49" y="105.01" width="4.45" height="10.18" transform="translate(-22.28 86.39) rotate(-45)"/><rect class="cls-1" x="68.01" y="65.97" width="119.67" height="4.63"/><rect class="cls-1" x="63.79" y="140.43" width="4.51" height="10.04" transform="translate(-83.51 9.31) rotate(-45)"/><rect class="cls-1" x="184.62" y="143.19" width="10.18" height="4.45" transform="translate(-47.26 96.74) rotate(-45)"/><rect class="cls-1" x="124.67" y="35.33" width="4.63" height="24.86"/><rect class="cls-1" x="112.53" y="35.33" width="4.63" height="24.86"/><rect class="cls-1" x="100.39" y="35.33" width="4.63" height="24.86"/><rect class="cls-1" x="88.25" y="35.33" width="4.63" height="24.86"/><rect class="cls-1" x="76.11" y="35.33" width="4.63" height="24.86"/><rect class="cls-1" x="136.81" y="35.33" width="4.63" height="24.86"/><rect class="cls-1" x="148.95" y="35.33" width="4.63" height="24.86"/><rect class="cls-1" x="161.09" y="35.33" width="4.63" height="24.86"/><rect class="cls-1" x="173.23" y="35.33" width="4.63" height="24.86"/><rect class="cls-1" x="65.7" y="46.31" width="123.14" height="3.47"/><rect class="cls-2" width="256" height="91"/></svg>