<?xml version="1.0" encoding="utf-8"?>
<!-- Generator: Adobe Illustrator 24.0.1, SVG Export Plug-In . SVG Version: 6.00 Build 0)  -->
<svg version="1.1" id="Слой_4" xmlns="http://www.w3.org/2000/svg" xmlns:xlink="http://www.w3.org/1999/xlink" x="0px" y="0px"
	 viewBox="0 0 250 201.5" style="enable-background:new 0 0 250 201.5;" xml:space="preserve">
<style type="text/css">
	.st0{fill:#FFFFFF;}
</style>
<g>
	<title>keyboards</title>
	<path class="st0" d="M0,124.8v46c0,4.4,3.6,8,8,8h234c4.4,0,8-3.6,8-8v-46H0z M23,160.7c0,0.6-0.5,1.1-1.1,1.1h0h-5.8
		c-0.6,0-1.1-0.5-1.1-1.1l0,0v-30.8c0-0.6,0.5-1.1,1.1-1.1h0h5.8c0.6,0,1.1,0.5,1.1,1.1l0,0V160.7z M38,160.7c0,0.6-0.5,1.1-1.1,1.1
		h0h-5.8c-0.6,0-1.1-0.5-1.1-1.1l0,0v-30.8c0-0.6,0.5-1.1,1.1-1.1h0h5.8c0.6,0,1.1,0.5,1.1,1.1V160.7z M65,160.7
		c0,0.6-0.5,1.1-1.1,1.1l0,0h-5.8c-0.6,0-1.1-0.5-1.1-1.1l0,0v-30.8c0-0.6,0.5-1.1,1.1-1.1h0h5.8c0.6,0,1.1,0.5,1.1,1.1l0,0V160.7z
		 M80,160.7c0,0.6-0.5,1.1-1.1,1.1l0,0h-5.8c-0.6,0-1.1-0.5-1.1-1.1l0,0v-30.8c0-0.6,0.5-1.1,1.1-1.1l0,0h5.8c0.6,0,1.1,0.5,1.1,1.1
		l0,0V160.7z M95,160.7c0,0.6-0.5,1.1-1.1,1.1l0,0h-5.8c-0.6,0-1.1-0.5-1.1-1.1l0,0v-30.8c0-0.6,0.5-1.1,1.1-1.1l0,0h5.8
		c0.6,0,1.1,0.5,1.1,1.1l0,0V160.7z M122,160.7c0,0.6-0.5,1.1-1.1,1.1l0,0h-5.8c-0.6,0-1.1-0.5-1.1-1.1l0,0v-30.8
		c0-0.6,0.5-1.1,1.1-1.1l0,0h5.8c0.6,0,1.1,0.5,1.1,1.1l0,0V160.7z M137,160.7c0,0.6-0.5,1.1-1.1,1.1l0,0h-5.8
		c-0.6,0-1.1-0.5-1.1-1.1l0,0v-30.8c0-0.6,0.5-1.1,1.1-1.1l0,0h5.8c0.6,0,1.1,0.5,1.1,1.1l0,0V160.7z M164,160.7
		c0,0.6-0.5,1.1-1.1,1.1l0,0h-5.8c-0.6,0-1.1-0.5-1.1-1.1l0,0v-30.8c0-0.6,0.5-1.1,1.1-1.1l0,0h5.8c0.6,0,1.1,0.5,1.1,1.1l0,0V160.7
		z M179,160.7c0,0.6-0.5,1.1-1.1,1.1l0,0h-5.8c-0.6,0-1.1-0.5-1.1-1.1l0,0v-30.8c0-0.6,0.5-1.1,1.1-1.1l0,0h5.8
		c0.6,0,1.1,0.5,1.1,1.1l0,0V160.7z M194,160.7c0,0.6-0.5,1.1-1.1,1.1l0,0h-5.8c-0.6,0-1.1-0.5-1.1-1.1l0,0v-30.8
		c0-0.6,0.5-1.1,1.1-1.1l0,0h5.8c0.6,0,1.1,0.5,1.1,1.1l0,0V160.7z M220,160.7c0,0.6-0.5,1.1-1.1,1.1l0,0h-5.8
		c-0.6,0-1.1-0.5-1.1-1.1l0,0v-30.8c0-0.6,0.5-1.1,1.1-1.1l0,0h5.8c0.6,0,1.1,0.5,1.1,1.1l0,0V160.7z M235,160.7
		c0,0.6-0.5,1.1-1.1,1.1l0,0h-5.8c-0.6,0-1.1-0.5-1.1-1.1l0,0v-30.8c0-0.6,0.5-1.1,1.1-1.1l0,0h5.8c0.6,0,1.1,0.5,1.1,1.1l0,0V160.7
		z"/>
	<path class="st0" d="M8,100.8h234c4.4,0,8,3.6,8,8v8l0,0H0l0,0v-8C0,104.3,3.6,100.8,8,100.8z"/>
</g>
</svg>
