<svg id="Слой_2" data-name="Слой 2" xmlns="http://www.w3.org/2000/svg" viewBox="0 0 233.46 206.01"><defs><style>.cls-1{fill:#fff;}</style></defs><title>saxophone</title><path class="cls-1" d="M184.29,0H212a0,0,0,0,1,0,0V13.72A1.29,1.29,0,0,1,210.71,15H184.29A1.29,1.29,0,0,1,183,13.72V1.3A1.29,1.29,0,0,1,184.29,0Z"/><path class="cls-1" d="M232.41,35.13,213.94,48.44a.78.78,0,0,0,.53,1.41l39.29-4.1a.77.77,0,0,0,.24-1.48l-20.82-9.22A.78.78,0,0,0,232.41,35.13Z" transform="translate(-21 -34.99)"/><rect class="cls-1" x="194" y="11.01" width="5" height="11" rx="2.5"/><rect class="cls-1" x="205" y="11.01" width="5" height="11" rx="2.5"/><path class="cls-1" d="M205,39l-45,3s-10,1-13,3-6,5-11,13c-.31.49-.7,1.23-1.17,2.18A10,10,0,1,1,127.07,78c-.53,1.3-1.08,2.62-1.63,4a10,10,0,1,1-7,17.49c-.73,1.84-1.46,3.68-2.17,5.5a11,11,0,1,1-7.53,19.21L106.08,131a11,11,0,1,1-7.23,19.35L84,191a10,10,0,0,1-5,6c-4,2-9,0-9,0s-4-1-5-7,3-18,3-18,5-15,10-25,4-21,4-21a11.19,11.19,0,0,1,4-10c5-4,1-6,1-6s-2-1-8,0a198.2,198.2,0,0,0-30,7c-12,4-26,15-26,15s-2,2-2,4a5.51,5.51,0,0,0,2,5c2,2,6,1,6,1a10.07,10.07,0,0,1,3-1c1,0,2,0,2,1v4l-.09.38A13,13,0,1,1,28.64,169L27,176l-.14.75A11.83,11.83,0,0,1,31,176a12,12,0,1,1-6.84,21.86c-.05.7-.11,1.41-.16,2.14a18.34,18.34,0,0,0,1,7.08A12,12,0,1,1,39.67,226c.83.66,1.33,1,1.33,1s3,3.31,11.06,5.69A11.71,11.71,0,0,1,52,231.5a11.5,11.5,0,0,1,23,0,11.68,11.68,0,0,1-.55,3.52l.55,0c26-1,34-21,34-21l12-41,25-76s7-29,18-38,40-10,40-10l2-1Z" transform="translate(-21 -34.99)"/><circle class="cls-1" cx="112" cy="35.01" r="8"/><circle class="cls-1" cx="104" cy="57.01" r="8"/><circle class="cls-1" cx="95.5" cy="81.51" r="8.5"/><circle class="cls-1" cx="85" cy="107.01" r="9"/><circle class="cls-1" cx="42.5" cy="196.51" r="9.5"/><circle class="cls-1" cx="12" cy="181.01" r="10"/><circle class="cls-1" cx="10" cy="153.01" r="10"/><circle class="cls-1" cx="16" cy="124.01" r="11"/></svg>