<svg id="Слой_4" data-name="Слой 4" xmlns="http://www.w3.org/2000/svg" viewBox="0 0 238.18 222.44"><defs><style>.cls-1{fill:#fff;}</style></defs><title>stringed</title><g id="corner"><polygon class="cls-1" points="191.19 213.39 24.31 213.39 33.36 222.44 182.14 222.44 191.19 213.39"/></g><g id="ukulele"><path class="cls-1" d="M42.24,176.73c.37.72.74,1.44,1.09,2.16a2,2,0,0,0,2.76.91l22.16-11.56a2.05,2.05,0,0,0,.84-2.79q-.59-1-1.14-2.13a122.24,122.24,0,0,1-8.59-20.71,1.64,1.64,0,0,0-.14-.33L53.31,131a2,2,0,0,0-2.74-.86L24.91,143.47a2,2,0,0,0-.86,2.74L30,157.54a1.17,1.17,0,0,0,.19.3A123.23,123.23,0,0,1,42.24,176.73Z" transform="translate(-11.43 -21.99)"/><ellipse class="cls-1" cx="38.44" cy="138.11" rx="16.5" ry="5.5" transform="translate(-70.96 11.46) rotate(-27.56)"/><rect class="cls-1" x="58.48" y="126.73" width="12" height="8" rx="3.18" transform="translate(-64.59 22.67) rotate(-27.56)"/><rect class="cls-1" x="11.49" y="151.24" width="12" height="8" rx="3.18" transform="matrix(0.89, -0.46, 0.46, 0.89, -81.26, 3.71)"/><rect class="cls-1" x="15.59" y="142.45" width="49" height="2" transform="translate(-73.24 12.83) rotate(-27.56)"/><rect class="cls-1" x="24.79" y="172.25" width="12" height="4" rx="1.39" transform="translate(-88.54 12.02) rotate(-27.56)"/><rect class="cls-1" x="66.46" y="150.51" width="12" height="4" rx="1.39" transform="translate(-73.76 28.83) rotate(-27.56)"/><rect class="cls-1" x="26.23" y="162.84" width="49" height="2" transform="translate(-81.46 20.07) rotate(-27.56)"/><polygon class="cls-1" points="85.05 204.6 53.15 145.9 36.49 154.6 61.52 204.6 85.05 204.6"/></g><g id="guitar"><polygon class="cls-1" points="121.48 204.53 118.89 81.88 95.06 81.89 92.36 204.53 121.48 204.53"/><path class="cls-1" d="M101.77,105.5s-5.36-2-5.36-10S134,23.5,134,23.5s4.29-4,7.51,1,0,22,0,22a317.56,317.56,0,0,0-2.14,38c0,22-1.08,21-1.08,21s-1,6.72-13.95,3c-14-4-14-1-14-1Z" transform="translate(-11.43 -21.99)"/><rect class="cls-1" x="136.49" y="5.51" width="15.02" height="7.68" rx="3.84"/><rect class="cls-1" x="134.35" y="18.16" width="15.02" height="8.77" rx="3.84"/><rect class="cls-1" x="133.28" y="31.81" width="15.02" height="7.68" rx="3.84"/><rect class="cls-1" x="132.2" y="45.45" width="15.02" height="8.77" rx="3.84"/><rect class="cls-1" x="131.13" y="59.19" width="15.02" height="7.68" rx="3.84"/><rect class="cls-1" x="131.13" y="72.74" width="15.02" height="8.77" rx="3.84"/><rect class="cls-1" x="126.84" y="7.51" width="13.95" height="4"/><rect class="cls-1" x="124.69" y="20.51" width="13.95" height="4"/><rect class="cls-1" x="122.54" y="33.51" width="13.95" height="4"/><rect class="cls-1" x="121.47" y="60.51" width="13.95" height="4"/><rect class="cls-1" x="121.47" y="47.51" width="13.95" height="4"/><rect class="cls-1" x="121.47" y="74.51" width="13.95" height="4"/></g><polygon id="guitar2" class="cls-1" points="156.78 205.01 188.84 149.97 168.11 140.37 126.66 205.01 156.78 205.01"/><path class="cls-1" d="M197.17,173.47l-16.32-10.06a6.07,6.07,0,0,1-2-8L203,107.61a6.16,6.16,0,0,1,8.62-2.77l24,14.82a6.16,6.16,0,0,1,1.4,8.94l-31.87,43.07A6.08,6.08,0,0,1,197.17,173.47Z" transform="translate(-11.43 -21.99)"/><rect class="cls-1" x="185.22" y="103" width="14.04" height="8" rx="2.42" transform="translate(73.28 -106.93) rotate(31.64)"/><rect class="cls-1" x="176.05" y="119.67" width="14.04" height="8" rx="2.42" transform="translate(80.66 -99.65) rotate(31.64)"/><rect class="cls-1" x="167.67" y="136.82" width="14.04" height="8" rx="2.42" transform="translate(88.42 -92.7) rotate(31.64)"/><rect class="cls-1" x="213.09" y="164.81" width="14.04" height="8" rx="2.42" transform="translate(109.86 -112.37) rotate(31.64)"/><rect class="cls-1" x="223.86" y="149.13" width="14.04" height="8" rx="2.42" transform="translate(103.23 -120.35) rotate(31.64)"/><rect class="cls-1" x="235.42" y="133.93" width="14.04" height="8" rx="2.42" transform="translate(96.98 -128.67) rotate(31.64)"/><rect class="cls-1" x="171.99" y="153.31" width="52.42" height="4" transform="translate(99.51 -102.88) rotate(31.64)"/><rect class="cls-1" x="181.96" y="137.13" width="52.42" height="4" transform="matrix(0.85, 0.52, -0.52, 0.85, 92.51, -110.51)"/><rect class="cls-1" x="191.93" y="120.96" width="52.42" height="4" transform="translate(85.51 -118.15) rotate(31.64)"/></svg>