<svg id="Слой_3" data-name="Слой 3" xmlns="http://www.w3.org/2000/svg" viewBox="0 0 248.89 248.36"><defs><style>.cls-1{fill:#fff;}</style></defs><title>trumpet</title><rect class="cls-1" x="7.23" y="108.8" width="254.82" height="18.69" transform="translate(-47.33 128.9) rotate(-45)"/><rect class="cls-1" x="24.44" y="209.65" width="18.69" height="18.69" transform="translate(-148.19 87.12) rotate(-45)"/><rect class="cls-1" x="2.22" y="227.68" width="34" height="11.22" transform="translate(167.36 53.83) rotate(45)"/><rect class="cls-1" x="74" y="143" width="14" height="14" transform="translate(-85.57 100.3) rotate(-45)"/><rect class="cls-1" x="96" y="121" width="14" height="14" transform="translate(-63.57 109.41) rotate(-45)"/><rect class="cls-1" x="118" y="99" width="14" height="14" transform="translate(-41.57 118.53) rotate(-45)"/><rect class="cls-1" x="54" y="129.99" width="25" height="12.02" transform="translate(-79.92 85.95) rotate(-45)"/><rect class="cls-1" x="76" y="107.99" width="25" height="12.02" transform="translate(-57.92 95.06) rotate(-45)"/><rect class="cls-1" x="98" y="85.99" width="25" height="12.02" transform="translate(-35.92 104.17) rotate(-45)"/><path class="cls-1" d="M188.88,116.88l-6.26-6.26a23.5,23.5,0,0,0-33.24,0L92.62,167.38a23.5,23.5,0,0,0,0,33.24l6.26,6.26a23.5,23.5,0,0,0,33.24,0l56.76-56.76A23.5,23.5,0,0,0,188.88,116.88Zm-8.58,25-57,57a10.22,10.22,0,0,1-14.45,0l-8.18-8.18a10.22,10.22,0,0,1,0-14.45l57-57a10.22,10.22,0,0,1,14.45,0l8.18,8.18A10.22,10.22,0,0,1,180.3,141.83Z" transform="translate(-3.23 -0.91)"/><rect class="cls-1" x="190.89" y="24.51" width="69.25" height="6" transform="translate(82.28 -152.31) rotate(45)"/><path class="cls-1" d="M199,5V18s0,14-5,23-19,23.58-19,23.58l44.4-39Z" transform="translate(-3.23 -0.91)"/><path class="cls-1" d="M248,54l-13-.12s-14-.13-23.05,4.78-23.76,18.8-23.76,18.8l39.38-44Z" transform="translate(-3.23 -0.91)"/></svg>