<svg id="Слой_2" data-name="Слой 2" xmlns="http://www.w3.org/2000/svg" viewBox="0 0 252 277"><defs><style>.cls-1,.cls-2{fill:#fff;}.cls-2{font-size:229.7px;font-family:GillSansMT, Gill Sans MT;}</style></defs><title>tuner</title><rect class="cls-1" y="224" width="10" height="53"/><rect class="cls-1" x="242" y="224" width="10" height="53"/><rect class="cls-1" x="20" y="252" width="10" height="25"/><rect class="cls-1" x="40" y="252" width="10" height="25"/><rect class="cls-1" x="60" y="252" width="10" height="25"/><rect class="cls-1" x="80" y="252" width="10" height="25"/><rect class="cls-1" x="101" y="252" width="10" height="25"/><rect class="cls-1" x="141" y="252" width="10" height="25"/><rect class="cls-1" x="161" y="252" width="10" height="25"/><rect class="cls-1" x="181" y="252" width="10" height="25"/><rect class="cls-1" x="201" y="252" width="10" height="25"/><rect class="cls-1" x="222" y="252" width="10" height="25"/><rect class="cls-1" x="121" y="249" width="10" height="28"/><text class="cls-2" transform="translate(41.64 193.17) scale(1.11 1)">A</text><path class="cls-1" d="M129.2,210l17-25.39a1.65,1.65,0,0,0-1.37-2.57H110.8a1.65,1.65,0,0,0-1.38,2.57l17,25.39A1.65,1.65,0,0,0,129.2,210Z" transform="translate(-2 28)"/></svg>