<svg xmlns="http://www.w3.org/2000/svg" viewBox="0 0 243.13 210.48"><defs><style>.cls-1{fill:none;stroke:#fff;stroke-miterlimit:10;stroke-width:7px;}.cls-2{fill:#fff;}</style></defs><title>winds</title><g id="Слой_3" data-name="Слой 3"><g id="Слой_2" data-name="Слой 2"><path class="cls-1" d="M154.35,219.87v1.39a3.64,3.64,0,0,1-3.62,3.62H75.19a3.64,3.64,0,0,1-3.62-3.62v-1.39a3.63,3.63,0,0,1,3.62-3.62h75.54A3.58,3.58,0,0,1,154.35,219.87Z" transform="translate(-2.61 -17.89)"/><path class="cls-1" d="M113,220.56" transform="translate(-2.61 -17.89)"/><path class="cls-2" d="M132.31,224.82h1.76a8.28,8.28,0,0,0,.2-8.57h-1.68A6.66,6.66,0,0,1,132.31,224.82Z" transform="translate(-2.61 -17.89)"/><path class="cls-2" d="M88.93,224.82h1.8a8.28,8.28,0,0,0,.2-8.57H89.25A6.68,6.68,0,0,1,88.93,224.82Z" transform="translate(-2.61 -17.89)"/><path class="cls-2" d="M143.48,224.82h1.8a8.28,8.28,0,0,0,.2-8.57H143.8A6.67,6.67,0,0,1,143.48,224.82Z" transform="translate(-2.61 -17.89)"/><path class="cls-2" d="M83.17,219.25h4a.11.11,0,0,1,.09.1v2.47s0,.07-.09.09h-4a.62.62,0,0,1-.64-.63v-1.35A.63.63,0,0,1,83.17,219.25Z" transform="translate(-2.61 -17.89)"/><circle class="cls-2" cx="93.31" cy="202.67" r="1.59"/><circle class="cls-2" cx="99.16" cy="202.67" r="1.59"/><circle class="cls-2" cx="105.65" cy="202.67" r="1.59"/><circle class="cls-2" cx="111.98" cy="202.67" r="1.59"/><circle class="cls-2" cx="118.92" cy="202.67" r="1.59"/><circle class="cls-2" cx="128.09" cy="203.51" r="1.33"/><circle class="cls-2" cx="128.55" cy="200.91" r="0.8"/><circle class="cls-2" cx="137.31" cy="203.59" r="1.33"/><circle class="cls-2" cx="137.8" cy="201" r="0.8"/></g></g><g id="Слой_2-2" data-name="Слой 2"><path class="cls-2" d="M178.19,126.16l16.92,9.69h0l-4.8,8.38a.9.9,0,0,1-1.23.33l-16.14-9.24a.92.92,0,0,1-.34-1.24L177,126.5a.91.91,0,0,1,1.24-.35Z" transform="translate(-2.61 -17.89)"/><path class="cls-2" d="M194.7,135.73l-15.93,1.67a.54.54,0,0,0-.17,1L204,149.69a.54.54,0,0,0,.72-.26.52.52,0,0,0-.06-.56L195.2,136A.55.55,0,0,0,194.7,135.73Z" transform="translate(-2.61 -17.89)"/><path class="cls-2" d="M181.8,137.15h0a1.77,1.77,0,0,1,.65,2.4l-2.1,3.67a1.77,1.77,0,0,1-2.4.65h0a1.76,1.76,0,0,1-.66-2.4l2.1-3.67A1.77,1.77,0,0,1,181.8,137.15Z" transform="translate(-2.61 -17.89)"/><path class="cls-2" d="M188.51,141h0a1.75,1.75,0,0,1,.65,2.4l-2.09,3.67a1.77,1.77,0,0,1-2.41.65h0a1.76,1.76,0,0,1-.65-2.4l2.1-3.67A1.76,1.76,0,0,1,188.51,141Z" transform="translate(-2.61 -17.89)"/><path class="cls-2" d="M176.61,128.5l-28.53-13.91s-6.46-2.89-9-2.72-5.41,1-11.26,4.09c-.36.2-.86.51-1.48.93a7,7,0,1,1-11,8.16l-2.4,1.88a7,7,0,1,1-10.39,8.23c-1.09.87-2.18,1.73-3.25,2.6A7.74,7.74,0,1,1,88,146.85l-4,3.22a7.74,7.74,0,1,1-11.18,9.29L49.54,179a7,7,0,0,1-5.15,1.91c-3.15-.17-5.5-3.14-5.5-3.14s-2.09-2-.6-6,8.13-9.94,8.13-9.94A166.13,166.13,0,0,1,61.27,150a30.82,30.82,0,0,0,9.79-11.42A7.86,7.86,0,0,1,77,133.89c4.45-.69,2.71-3.31,2.71-3.31s-.87-1.32-4.88-2.8a140.91,140.91,0,0,0-20.77-6.23c-8.73-1.75-21.13.07-21.13.07a4.91,4.91,0,0,0-2.62,1.74,3.86,3.86,0,0,0-.53,3.75c.52,1.92,3.32,2.71,3.32,2.71a7.11,7.11,0,0,1,2.18.44c.61.35,1.22.7.87,1.31L34.75,134l-.19.2a9.15,9.15,0,1,1-11.13,12L20,149.89l-.35.41a8.17,8.17,0,0,1,2.79,1A8.44,8.44,0,1,1,14,165.94a8.33,8.33,0,0,1-3.42-3.7c-.28.41-.57.82-.85,1.25a13,13,0,0,0-1.87,4.68,8.44,8.44,0,1,1,3.51,16.52,7.66,7.66,0,0,1-1.17.16c.28.7.46,1.08.46,1.08s.68,3.07,4.77,7.34a7.39,7.39,0,0,1,.38-.74,8.09,8.09,0,0,1,14,8,8.26,8.26,0,0,1-1.57,2l.34.19c16.23,8.49,28.11-.93,28.11-.93L78.42,181l41.86-37.67S134.7,128,144.57,126.38s27.92,7.89,27.92,7.89l1.58.09Z" transform="translate(-2.61 -17.89)"/><circle class="cls-2" cx="119.19" cy="104.35" r="5.63"/><circle class="cls-2" cx="106.61" cy="114.98" r="5.63"/><circle class="cls-2" cx="92.84" cy="126.97" r="5.98"/><circle class="cls-2" cx="77.51" cy="138.87" r="6.33"/><circle class="cls-2" cx="20.24" cy="178.65" r="6.69"/><circle class="cls-2" cx="7.04" cy="158.52" r="7.04"/><circle class="cls-2" cx="15.61" cy="140.72" r="7.04"/><circle class="cls-2" cx="29.43" cy="125.11" r="7.74"/></g><g id="Слой_4" data-name="Слой 4"><rect class="cls-2" x="38.6" y="25.47" width="201.42" height="14.77"/><rect class="cls-2" x="19.18" y="25.47" width="14.77" height="14.77"/><rect class="cls-2" x="6" y="19.27" width="8.87" height="26.88"/><rect class="cls-2" x="85.99" y="15.15" width="11.07" height="11.07"/><rect class="cls-2" x="110.58" y="15.15" width="11.07" height="11.07"/><rect class="cls-2" x="135.17" y="15.15" width="11.07" height="11.07"/><rect class="cls-2" x="81.36" width="19.76" height="9.5"/><rect class="cls-2" x="105.95" width="19.76" height="9.5"/><rect class="cls-2" x="130.55" width="19.76" height="9.5"/><path class="cls-2" d="M172.94,80.36v-7a18.56,18.56,0,0,0-18.57-18.57H90.91A18.57,18.57,0,0,0,72.33,73.36h0v7A18.58,18.58,0,0,0,90.9,98.94h63.46a18.57,18.57,0,0,0,18.58-18.57Zm-18.77,9.18H90.45a8.07,8.07,0,0,1-8.07-8.08V72.32a8.07,8.07,0,0,1,8.07-8.08h63.72a8.08,8.08,0,0,1,8.08,8.08v9.14a8.11,8.11,0,0,1-8.05,8.05Z" transform="translate(-2.61 -17.89)"/><rect class="cls-2" x="238.39" y="5.63" width="4.74" height="54.74"/><path class="cls-2" d="M241.13,23.49l-7.27,7.26S226,38.58,218.21,40.81s-23.8,2.56-23.8,2.56l46.62,3Z" transform="translate(-2.61 -17.89)"/><path class="cls-2" d="M241.13,78.26l-7.2-7.33s-7.75-7.9-15.56-10.21-23.78-2.78-23.78-2.78l46.6-2.58Z" transform="translate(-2.61 -17.89)"/></g><g id="Слой_5" data-name="Слой 5"><path class="cls-2" d="M154,197l65-.21a1.58,1.58,0,0,0,1.58-1.58h0l0-11.48a1.58,1.58,0,0,0-1.59-1.58h0l-65,.21a1.57,1.57,0,0,0-1.57,1.59h0l0,11.48A1.59,1.59,0,0,0,154,197Zm6.1-11.73a.8.8,0,0,1,.8-.8l51.38-.17a.8.8,0,0,1,.8.8l0,8.78a.82.82,0,0,1-.8.81l-51.38.16a.8.8,0,0,1-.8-.8Z" transform="translate(-2.61 -17.89)"/><rect class="cls-2" x="158.82" y="197.98" width="55.11" height="2.13" transform="translate(-3.24 -17.3) rotate(-0.18)"/><rect class="cls-2" x="212.52" y="196.62" width="4.62" height="2.08" transform="translate(-79.41 192.84) rotate(-45.18)"/><rect class="cls-2" x="156.86" y="195.48" width="2.05" height="4.69" transform="translate(-96.33 152.49) rotate(-45.18)"/><rect class="cls-2" x="158.76" y="179.08" width="55.11" height="2.13" transform="translate(-3.18 -17.3) rotate(-0.18)"/><rect class="cls-2" x="213.74" y="179.04" width="2.08" height="4.62" transform="translate(-67.86 187.99) rotate(-45.18)"/><rect class="cls-2" x="155.49" y="180.53" width="4.69" height="2.05" transform="translate(-84.81 147.66) rotate(-45.18)"/><rect class="cls-2" x="185.68" y="183.87" width="2.13" height="11.45" transform="translate(-3.21 -17.3) rotate(-0.18)"/><rect class="cls-2" x="191.27" y="183.85" width="2.13" height="11.45" transform="translate(-3.21 -17.28) rotate(-0.18)"/><rect class="cls-2" x="196.86" y="183.84" width="2.13" height="11.45" transform="translate(-3.21 -17.26) rotate(-0.18)"/><rect class="cls-2" x="202.45" y="183.82" width="2.13" height="11.45" transform="translate(-3.21 -17.24) rotate(-0.18)"/><rect class="cls-2" x="208.05" y="183.8" width="2.13" height="11.45" transform="translate(-3.21 -17.22) rotate(-0.18)"/><rect class="cls-2" x="180.09" y="183.89" width="2.13" height="11.45" transform="translate(-3.21 -17.31) rotate(-0.18)"/><rect class="cls-2" x="174.5" y="183.91" width="2.13" height="11.45" transform="translate(-3.21 -17.33) rotate(-0.18)"/><rect class="cls-2" x="168.91" y="183.93" width="2.13" height="11.45" transform="translate(-3.21 -17.35) rotate(-0.18)"/><rect class="cls-2" x="163.32" y="183.94" width="2.13" height="11.45" transform="translate(-3.21 -17.37) rotate(-0.18)"/><rect class="cls-2" x="158.26" y="188.66" width="56.71" height="1.6" transform="translate(-3.21 -17.3) rotate(-0.18)"/></g></svg>